<svg xmlns="http://www.w3.org/2000/svg" width="22" height="22" viewBox="0 0 22 22"><defs><style>.a{fill:#089602;}</style></defs><path class="a" d="M89.377,189.5l-2.695-2.7a.823.823,0,0,0-.605-.247.869.869,0,0,0-.632.275.863.863,0,0,0,0,1.21l3.355,3.382a.8.8,0,0,0,1.155,0l6.573-6.573a.865.865,0,0,0,0-1.265.932.932,0,0,0-1.265.027ZM91,198a10.644,10.644,0,0,1-4.263-.866,11.083,11.083,0,0,1-5.871-5.871,10.988,10.988,0,0,1,0-8.553,10.993,10.993,0,0,1,2.365-3.493,11.276,11.276,0,0,1,3.506-2.351,10.988,10.988,0,0,1,8.553,0,10.983,10.983,0,0,1,5.844,5.844,10.988,10.988,0,0,1,0,8.553,11.276,11.276,0,0,1-2.351,3.506,10.993,10.993,0,0,1-3.492,2.365A10.711,10.711,0,0,1,91,198Z" transform="translate(-80 -176)"/></svg>