<svg xmlns="http://www.w3.org/2000/svg" xmlns:xlink="http://www.w3.org/1999/xlink" width="896" height="658" viewBox="0 0 896 658"><defs><style>.a{fill:#fff;}.b{fill:#b7b7b7;}.c{filter:url(#a);}</style><filter id="a" x="0" y="0" width="896" height="658" filterUnits="userSpaceOnUse"><feOffset dy="2" input="SourceAlpha"/><feGaussianBlur stdDeviation="3" result="b"/><feFlood flood-color="#0a1a27" flood-opacity="0.141"/><feComposite operator="in" in2="b"/><feComposite in="SourceGraphic"/></filter></defs><g transform="translate(9 7)"><g class="c" transform="matrix(1, 0, 0, 1, -9, -7)"><path class="a" d="M8,0H870a8,8,0,0,1,8,8V632a8,8,0,0,1-8,8H8a8,8,0,0,1-8-8V8A8,8,0,0,1,8,0Z" transform="translate(9 7)"/></g><path class="b" d="M27.5,9.514,25.486,7.5,17.5,15.486,9.514,7.5,7.5,9.514,15.486,17.5,7.5,25.486,9.514,27.5,17.5,19.514,25.486,27.5,27.5,25.486,19.514,17.5Z" transform="translate(834.516 5.5)"/></g></svg>