<svg xmlns="http://www.w3.org/2000/svg" width="667" height="60" viewBox="0 0 667 60"><defs><style>.a{fill:#fff;}.b,.c{stroke:none;}.c{fill:#0a1a27;}</style></defs><g class="a"><path class="b" d="M 659 59.5 L 8 59.5 C 3.864500045776367 59.5 0.5 56.13550186157227 0.5 52 L 0.5 8 C 0.5 3.864500045776367 3.864500045776367 0.5 8 0.5 L 659 0.5 C 663.135498046875 0.5 666.5 3.864500045776367 666.5 8 L 666.5 52 C 666.5 56.13550186157227 663.135498046875 59.5 659 59.5 Z"/><path class="c" d="M 8 1 C 4.14013671875 1 1 4.140167236328125 1 8 L 1 52 C 1 55.85983276367188 4.14013671875 59 8 59 L 659 59 C 662.85986328125 59 666 55.85983276367188 666 52 L 666 8 C 666 4.140167236328125 662.85986328125 1 659 1 L 8 1 M 8 0 L 659 0 C 663.4182739257812 0 667 3.581748962402344 667 8 L 667 52 C 667 56.41825103759766 663.4182739257812 60 659 60 L 8 60 C 3.58172607421875 60 0 56.41825103759766 0 52 L 0 8 C 0 3.581748962402344 3.58172607421875 0 8 0 Z"/></g></svg>